<svg id="Layer_1" data-name="Layer 1" xmlns="http://www.w3.org/2000/svg" xmlns:xlink="http://www.w3.org/1999/xlink" viewBox="0 0 389.75 379.45"><defs><style>.cls-1{fill:#fff;}.cls-2{fill:none;}.cls-3{clip-path:url(#clip-path);}.cls-4{clip-path:url(#clip-path-2);}.cls-5{fill:#fdb614;}.cls-6{fill:#97d8e8;}</style><clipPath id="clip-path" transform="translate(-103.91 -231.18)"><circle class="cls-1" cx="291.68" cy="433.33" r="132.5"/></clipPath><clipPath id="clip-path-2" transform="translate(-103.91 -231.18)"><circle class="cls-2" cx="291.68" cy="433.33" r="132.5"/></clipPath></defs><circle class="cls-1" cx="187.77" cy="202.15" r="132.5"/><g class="cls-3"><path class="cls-1" d="M131,505.47c25-.35,50.33-5.92,71.44-19.27,33.08-20.92,53.33-59,88.32-76.55,19-9.5,40.58-12,61.09-17.49a212.08,212.08,0,0,0,56.63-24.44c14.3-8.84,28.41-20.7,32.15-37.08,4-17.8-5.25-35.88-16.27-50.43-17-22.4-40-41.69-67.57-47.25-13.7-2.77-27.92-2-41.71.3-49.77,8.39-94.21,36.92-131,71.44-9.91,9.28-19.55,19.26-25.58,31.44-11.52,23.23-8.39,50.62-7.49,76.53.22,6.47.26,13.14-2.08,19.17-2.26,5.87-6.58,10.66-10.81,15.32l-29.7,32.68c-2.59,2.85-5.37,6.48-4.23,10.15.81,2.61,3.36,4.23,5.72,5.61L130,507.44" transform="translate(-103.91 -231.18)"/><path class="cls-1" d="M114.36,550.48c2.59-19,6.26-39.14,19.37-53.12,13.45-14.34,34.51-19.25,54.15-18.2s38.57,7.24,57.68,11.9c18.71,4.56,38,7.7,57.22,5.93,40.33-3.72,75.28-28.32,113.28-42.33,7.94-2.93,16.19-5.42,24.65-5.58,19.58-.37,38.13,12.63,46.71,30.23s7.88,38.89.5,57-20.94,33.29-36.65,45A148.77,148.77,0,0,1,379.1,609.7c-43.32,4.76-86.15-9.64-127.8-22.5q-67.34-20.79-136-36.84" transform="translate(-103.91 -231.18)"/></g><g class="cls-4"><path class="cls-5" d="M131,505.47c25-.35,50.33-5.92,71.44-19.27,33.08-20.92,53.33-59,88.32-76.55,19-9.5,40.58-12,61.09-17.49a212.08,212.08,0,0,0,56.63-24.44c14.3-8.84,28.41-20.7,32.15-37.08,4-17.8-5.25-35.88-16.27-50.43-17-22.4-40-41.69-67.57-47.25-13.7-2.77-27.92-2-41.71.3-49.77,8.39-94.21,36.92-131,71.44-9.91,9.28-19.55,19.26-25.58,31.44-11.52,23.23-8.39,50.62-7.49,76.53.22,6.47.26,13.14-2.08,19.17-2.26,5.87-6.58,10.66-10.81,15.32l-29.7,32.68c-2.59,2.85-5.37,6.48-4.23,10.15.81,2.61,3.36,4.23,5.72,5.61L130,507.44" transform="translate(-103.91 -231.18)"/><path class="cls-6" d="M114.36,550.48c2.59-19,6.26-39.14,19.37-53.12,13.45-14.34,34.51-19.25,54.15-18.2s38.57,7.24,57.68,11.9c18.71,4.56,38,7.7,57.22,5.93,40.33-3.72,75.28-28.32,113.28-42.33,7.94-2.93,16.19-5.42,24.65-5.58,19.58-.37,38.13,12.63,46.71,30.23s7.88,38.89.5,57-20.94,33.29-36.65,45A148.77,148.77,0,0,1,379.1,609.7c-43.32,4.76-86.15-9.64-127.8-22.5q-67.34-20.79-136-36.84" transform="translate(-103.91 -231.18)"/></g></svg>